<?xml version="1.0" encoding="UTF-8" standalone="no" ?>
<!DOCTYPE svg PUBLIC "-//W3C//DTD SVG 1.1//EN" "http://www.w3.org/Graphics/SVG/1.1/DTD/svg11.dtd">
<svg xmlns="http://www.w3.org/2000/svg" xmlns:xlink="http://www.w3.org/1999/xlink" version="1.1" width="400" height="400" viewBox="0 0 400 400" xml:space="preserve">
<desc>Created with Fabric.js 3.6.2</desc>
<defs>
</defs>
<g transform="matrix(0.39 0 0 0.39 200 200)" id="Layer_1"  >
<path style="stroke: none; stroke-width: 1; stroke-dasharray: none; stroke-linecap: butt; stroke-dashoffset: 0; stroke-linejoin: miter; stroke-miterlimit: 4; fill: rgb(103,138,175); fill-rule: nonzero; opacity: 1;"  transform=" translate(-256, -256)" d="M 512 397.1 c 0 63.5 -51.5 114.9 -114.9 114.9 H 114.9 C 51.5 512 0 460.5 0 397.1 V 114.9 C 0 51.5 51.5 0 114.9 0 h 282.2 C 460.5 0 512 51.5 512 114.9 V 397.1 z" stroke-linecap="round" />
</g>
<g transform="matrix(0.39 0 0 0.39 200 199.99)" id="Layer_1"  >
<path style="stroke: none; stroke-width: 1; stroke-dasharray: none; stroke-linecap: butt; stroke-dashoffset: 0; stroke-linejoin: miter; stroke-miterlimit: 4; fill: rgb(255,255,255); fill-rule: nonzero; opacity: 1;"  transform=" translate(-256, -255.97)" d="M 252.5 349.4 h 19.7 c 0 0 6 -0.7 9 -3.9 c 2.8 -3 2.7 -8.7 2.7 -8.7 s -0.4 -26.5 11.9 -30.4 c 12.1 -3.9 27.7 25.6 44.2 36.9 c 12.5 8.6 22 6.7 22 6.7 l 44.1 -0.6 c 0 0 23.1 -1.4 12.1 -19.6 c -0.9 -1.5 -6.4 -13.4 -32.8 -37.9 c -27.6 -25.6 -23.9 -21.5 9.4 -65.9 c 20.3 -27 28.4 -43.5 25.9 -50.6 c -2.4 -6.7 -17.3 -4.9 -17.3 -4.9 l -49.7 0.3 c 0 0 -3.7 -0.5 -6.4 1.1 c -2.7 1.6 -4.4 5.3 -4.4 5.3 s -7.9 20.9 -18.4 38.7 c -22.1 37.6 -30.9 39.5 -34.6 37.2 c -8.4 -5.5 -6.3 -21.8 -6.3 -33.5 c 0 -36.4 5.5 -51.5 -10.8 -55.5 c -5.4 -1.3 -9.4 -2.2 -23.2 -2.3 c -17.7 -0.2 -32.7 0.1 -41.2 4.2 c -5.6 2.8 -10 8.9 -7.4 9.3 c 3.3 0.4 10.7 2 14.7 7.4 c 5.1 6.9 4.9 22.5 4.9 22.5 s 2.9 42.8 -6.8 48.2 c -6.7 3.7 -15.9 -3.8 -35.6 -37.9 c -10.1 -17.4 -17.7 -36.7 -17.7 -36.7 s -1.5 -3.6 -4.1 -5.5 c -3.2 -2.3 -7.6 -3.1 -7.6 -3.1 l -47.2 0.3 c 0 0 -7.1 0.2 -9.7 3.3 c -2.3 2.7 -0.2 8.4 -0.2 8.4 s 36.9 86.4 78.8 130 C 208.9 352 252.5 349.4 252.5 349.4 L 252.5 349.4 L 252.5 349.4 z" stroke-linecap="round" />
</g>
</svg>